<svg width="24" height="25" viewBox="0 0 24 25" fill="none" xmlns="http://www.w3.org/2000/svg">
<path d="M2 3.3335H8C9.06087 3.3335 10.0783 3.75492 10.8284 4.50507C11.5786 5.25521 12 6.27263 12 7.3335V21.3335C12 20.5378 11.6839 19.7748 11.1213 19.2122C10.5587 18.6496 9.79565 18.3335 9 18.3335H2V3.3335Z" stroke="#592D9C" stroke-width="2" stroke-linecap="round" stroke-linejoin="round"/>
<path d="M22 3.3335H16C14.9391 3.3335 13.9217 3.75492 13.1716 4.50507C12.4214 5.25521 12 6.27263 12 7.3335V21.3335C12 20.5378 12.3161 19.7748 12.8787 19.2122C13.4413 18.6496 14.2044 18.3335 15 18.3335H22V3.3335Z" stroke="#592D9C" stroke-width="2" stroke-linecap="round" stroke-linejoin="round"/>
</svg>
