<svg width="197" height="146" viewBox="0 0 197 146" fill="none" xmlns="http://www.w3.org/2000/svg">
<path d="M7.49976 3.06042V52.7604V102.68C7.49976 112.014 7.49976 121.347 7.49976 130.68C7.50231 130.959 7.61346 131.226 7.80954 131.424C8.00562 131.622 8.27116 131.735 8.54974 131.74C32.3697 131.24 56.1931 130.84 80.0197 130.54C103.846 130.24 127.6 130.044 151.28 129.95C164.66 129.89 178.046 129.864 191.44 129.87C191.718 129.87 191.985 129.76 192.182 129.563C192.379 129.366 192.49 129.099 192.49 128.82C192.49 128.542 192.379 128.275 192.182 128.078C191.985 127.881 191.718 127.77 191.44 127.77C167.606 127.77 143.78 127.857 119.96 128.03C96.1397 128.204 72.3864 128.487 48.6998 128.88C35.3198 129.1 21.9364 129.35 8.54974 129.63L9.60974 130.63V80.9305V31.0104C9.60974 21.6771 9.60974 12.3438 9.60974 3.01044C9.60974 2.73196 9.49913 2.46489 9.30222 2.26797C9.1053 2.07106 8.83823 1.96045 8.55975 1.96045C8.28128 1.96045 8.0142 2.07106 7.81729 2.26797C7.62038 2.46489 7.50977 2.73196 7.50977 3.01044L7.49976 3.06042Z" fill="#F5CAC3"/>
<path d="M1.3999 1.36049C4.3099 18.3605 4.97991 35.6505 5.24991 52.8705C5.52991 70.2605 5.64991 87.6505 5.84991 105.04L6.1799 134.691C6.1799 134.969 6.29054 135.236 6.48746 135.433C6.68437 135.63 6.95144 135.74 7.22992 135.74C7.5084 135.74 7.77547 135.63 7.97238 135.433C8.16929 135.236 8.27991 134.969 8.27991 134.691L7.69992 81.9105C7.50992 64.5305 7.5899 47.1105 6.5899 29.7605C6.07899 20.0424 5.024 10.3605 3.4299 0.760485C3.1999 -0.569515 1.1699 -0.00951755 1.4299 1.32048L1.3999 1.36049Z" fill="#F5CAC3"/>
<path d="M5.8996 137.11C30.3796 137.397 54.8596 137.337 79.3396 136.93C103.82 136.524 128.29 135.76 152.75 134.64C166.45 134.007 180.14 133.274 193.82 132.44C195.17 132.35 195.18 130.25 193.82 130.33C169.393 131.83 144.94 132.987 120.46 133.8C95.9796 134.614 71.5029 135.067 47.0296 135.16C33.3163 135.22 19.6063 135.17 5.8996 135.01C5.62112 135.01 5.35405 135.121 5.15714 135.318C4.96022 135.515 4.84961 135.782 4.84961 136.06C4.84961 136.339 4.96022 136.606 5.15714 136.803C5.35405 137 5.62112 137.11 5.8996 137.11Z" fill="#F5CAC3"/>
<path d="M0.179745 2.34042C0.179745 24.5004 0.156404 46.6638 0.109737 68.8304C0.109737 90.8904 -0.0902602 112.97 0.0497398 135.03C0.0497398 138.78 0.969738 143.03 5.35974 143.59C8.02316 143.776 10.6963 143.776 13.3597 143.59L21.5597 143.53C32.5597 143.45 43.5597 143.407 54.5597 143.4C76.7064 143.4 98.8531 143.554 121 143.86C143.146 144.167 165.216 144.644 187.21 145.29L195.41 145.53C195.672 145.505 195.915 145.383 196.092 145.188C196.269 144.993 196.367 144.739 196.367 144.475C196.367 144.212 196.269 143.958 196.092 143.763C195.915 143.568 195.672 143.446 195.41 143.42C173.616 142.754 151.823 142.257 130.03 141.93C108.236 141.604 86.4397 141.39 64.6397 141.29C53.7797 141.29 42.9164 141.307 32.0497 141.34C26.5764 141.34 21.1097 141.38 15.6497 141.46C12.9097 141.46 10.1798 141.52 7.44976 141.53C5.32976 141.53 3.44973 141.27 2.66973 139.06C1.96973 137.06 2.15976 134.82 2.15976 132.75V124.75C2.15976 119.277 2.15976 113.807 2.15976 108.34V75.7304L2.22976 10.3004C2.22976 7.63045 2.22976 4.97045 2.22976 2.30045C2.20422 2.03836 2.08201 1.79516 1.88699 1.61823C1.69197 1.44129 1.43807 1.34326 1.17474 1.34326C0.911413 1.34326 0.657513 1.44129 0.46249 1.61823C0.267467 1.79516 0.145293 2.03836 0.119747 2.30045L0.179745 2.34042Z" fill="#F5CAC3"/>
</svg>
