<svg width="56" height="56" viewBox="0 0 56 56" fill="none" xmlns="http://www.w3.org/2000/svg">
<rect width="56" height="56" rx="28" fill="#F7EDE2"/>
<path d="M25.9376 18.5925C27.1984 18.3732 28.4923 18.426 29.7306 18.7472C30.9688 19.0683 32.1222 19.6503 33.1115 20.4531C33.8223 21.0463 34.4459 21.7344 34.9644 22.4977C36.8945 25.3001 37.4752 28.9689 36.5042 32.2206C35.962 34.0363 34.9327 35.7418 33.4255 36.9116C31.9183 38.0814 29.9084 38.6705 28.0332 38.2959C26.6015 38.0102 25.3251 37.1989 24.246 36.2275C21.8445 34.0504 20.3126 31.0946 19.9286 27.8966C19.5854 24.9568 20.4158 21.689 22.8057 19.9064C23.7193 19.2249 24.8121 18.7959 25.9376 18.5925Z" fill="#FFC9C2"/>
<path d="M33.9333 43.7913C34.4231 43.1708 34.4351 42.3104 34.3528 41.5272C34.2888 40.8881 34.1656 40.2562 33.9848 39.6394C33.9764 39.5821 33.9456 39.5304 33.899 39.4953C33.8473 39.4762 33.7903 39.4762 33.7386 39.4953C32.0171 39.8886 30.3225 40.3886 28.6646 40.9923C28.634 40.9991 28.6051 41.0119 28.5796 41.03C28.5541 41.048 28.5326 41.071 28.5162 41.0974C28.5013 41.1544 28.5083 41.2148 28.5359 41.2669C28.747 41.7976 28.9574 42.3285 29.1673 42.8597C29.4667 43.615 29.8209 44.433 30.5509 44.8034C31.3942 45.2273 32.4381 44.8958 33.2299 44.3881C33.4963 44.2291 33.734 44.0275 33.9333 43.7913Z" fill="#ACA0FD"/>
<path d="M27.7476 28.1635C28.0384 27.3769 28.5763 26.5597 29.4135 26.4249C29.996 26.3317 30.5913 26.6072 31.0082 27.0183C31.4251 27.4294 31.6944 27.9668 31.9269 28.5017C32.4896 29.7809 32.8594 31.4228 31.902 32.4468C31.8313 32.5368 31.7313 32.6 31.6189 32.6257C31.3153 32.6672 31.172 32.268 31.1575 31.9653C31.0915 30.5716 31.3372 29.1806 31.8772 27.8914C32.0135 27.5676 32.1937 27.2251 32.5197 27.0878C33.1321 26.8293 33.7592 27.4481 34.0294 28.0499C34.5493 29.2061 34.5793 30.5311 34.3468 31.7746C34.1143 33.0182 33.6331 34.2024 33.1544 35.3755C32.9932 35.7722 32.8113 36.1918 32.4596 36.4368C32.2395 36.5715 31.9974 36.6676 31.7442 36.7208L29.2497 37.3989C28.9469 37.4837 28.6226 37.5625 28.3232 37.4667C28.0719 37.382 27.8772 37.1895 27.6996 36.9954C26.0234 35.1543 24.9546 32.8071 24.5171 30.3692C24.367 29.5359 24.415 28.4585 25.2033 28.1271C26.0328 27.7787 26.8684 28.5806 27.3813 29.3138C27.9672 30.1496 28.5385 31.0939 28.439 32.1111C28.403 32.4799 28.0839 32.9291 27.7528 32.7579C27.5923 32.6731 27.5297 32.4824 27.4894 32.3078C27.1713 30.9305 27.261 29.4918 27.7476 28.1635V28.1635Z" stroke="#65299E" stroke-width="0.92" stroke-miterlimit="10"/>
<path d="M35.6609 37.3463C36.022 37.9871 36.4141 39.0883 35.8565 39.7384C35.5494 40.097 34.8708 40.2352 34.4248 40.3852C33.0823 40.8379 31.6986 41.1676 30.321 41.4957C29.4563 41.7016 28.191 42.2526 27.3298 41.8034C26.7413 41.4965 26.3673 40.6395 26.369 40.0054C26.369 39.0103 27.0922 38.9959 27.8848 38.7704C30.2566 38.0922 32.6422 37.5082 35.0793 37.103C35.2131 37.081 35.3589 37.0615 35.4782 37.1327C35.5565 37.1874 35.6194 37.2609 35.6609 37.3463Z" fill="#ADBED0"/>
<path d="M35.4379 35.4417C36.0787 36.0791 36.1585 37.3676 35.5237 37.8736C35.1745 38.1508 34.2146 38.3873 33.79 38.528C31.6879 39.2228 29.5262 39.727 27.3315 40.0344C27.0888 40.0683 26.8314 40.0979 26.6058 40.003C26.3305 39.8877 26.1623 39.6122 26.0362 39.3443C25.7686 38.7722 25.3731 37.9033 25.9582 37.3693C26.4926 36.8827 27.8342 36.72 28.5222 36.536C29.917 36.163 31.3235 35.8378 32.7418 35.5603C33.4546 35.4196 34.4891 34.8907 35.202 35.267C35.289 35.3133 35.3685 35.3722 35.4379 35.4417Z" fill="#73A49C"/>
<path d="M13.0592 27.7067L15.2784 27.2405L13.0592 27.7067Z" fill="#65299E"/>
<path d="M13.0592 27.7067L15.2784 27.2405" stroke="#65299E" stroke-width="1.37" stroke-miterlimit="10" stroke-linecap="round"/>
<path d="M13.5525 20.625C14.3738 20.737 15.1733 20.9705 15.9243 21.3175L13.5525 20.625Z" fill="#65299E"/>
<path d="M13.5525 20.625C14.3738 20.737 15.1733 20.9705 15.9243 21.3175" stroke="#65299E" stroke-width="1.37" stroke-miterlimit="10" stroke-linecap="round"/>
<path d="M18.6702 15.239C19.2096 15.5515 19.6292 16.0317 19.8634 16.6046L18.6702 15.239Z" fill="#65299E"/>
<path d="M18.6702 15.239C19.2096 15.5515 19.6292 16.0317 19.8634 16.6046" stroke="#65299E" stroke-width="1.37" stroke-miterlimit="10" stroke-linecap="round"/>
<path d="M26.1187 14.3921C26.1318 13.6093 26.2075 12.8287 26.3451 12.0576L26.1187 14.3921Z" fill="#65299E"/>
<path d="M26.1187 14.3921C26.1318 13.6093 26.2075 12.8287 26.3451 12.0576" stroke="#65299E" stroke-width="1.37" stroke-miterlimit="10" stroke-linecap="round"/>
<path d="M34.4883 15.2304C34.7752 14.6751 35.1384 14.1617 35.5674 13.7046L34.4883 15.2304Z" fill="#65299E"/>
<path d="M34.4883 15.2304C34.7752 14.6751 35.1384 14.1617 35.5674 13.7046" stroke="#65299E" stroke-width="1.37" stroke-miterlimit="10" stroke-linecap="round"/>
<path d="M38.526 22.3943L40.9425 20.7837L38.526 22.3943Z" fill="#65299E"/>
<path d="M38.526 22.3943L40.9425 20.7837" stroke="#65299E" stroke-width="1.37" stroke-miterlimit="10" stroke-linecap="round"/>
</svg>
