<svg width="22" height="22" viewBox="0 0 22 22" fill="none" xmlns="http://www.w3.org/2000/svg">
<g clip-path="url(#clip0_782_27133)">
<path d="M16.6986 8.29423C16.0222 6.51543 15.6469 4.67889 15.5735 2.76183C15.5337 1.76626 13.9865 1.89663 14.0263 2.8922C14.1057 4.93033 14.5059 6.9194 15.2256 8.81099C15.5769 9.73322 17.0527 9.21934 16.7014 8.29425L16.6986 8.29423Z" fill="#592D9C"/>
<path d="M12.0288 11.7495C10.5383 10.5518 9.04931 9.35267 7.55742 8.1535C6.79279 7.53742 5.75657 8.71785 6.5268 9.33682C8.01731 10.5345 9.50634 11.7337 10.9982 12.9329C11.7629 13.5489 12.7991 12.3685 12.0288 11.7495Z" fill="#592D9C"/>
<path d="M10.2404 17.2346C8.20066 17.5709 6.23918 16.6576 4.18835 16.897C3.19584 17.0127 3.28162 18.5568 4.27698 18.4411C6.32211 18.2017 8.2721 19.1178 10.3291 18.7787C11.3117 18.6175 11.2302 17.072 10.2404 17.2346Z" fill="#592D9C"/>
</g>
<defs>
<clipPath id="clip0_782_27133">
<rect width="10.3962" height="19.4929" fill="white" transform="translate(14.0957 0.947754) rotate(46.1418)"/>
</clipPath>
</defs>
</svg>
