<svg width="64" height="64" viewBox="0 0 64 64" fill="none" xmlns="http://www.w3.org/2000/svg">
<rect x="0.5" y="0.5" width="63" height="63" rx="31.5" fill="white"/>
<path d="M38 34V36.6667C38 37.0203 37.8595 37.3594 37.6095 37.6095C37.3594 37.8595 37.0203 38 36.6667 38H27.3333C26.9797 38 26.6406 37.8595 26.3905 37.6095C26.1405 37.3594 26 37.0203 26 36.6667V34" stroke="#ED3F40" stroke-width="1.33333" stroke-linecap="round" stroke-linejoin="round"/>
<path d="M28.6666 30.6667L32 34L35.3333 30.6667" stroke="#ED3F40" stroke-width="1.33333" stroke-linecap="round" stroke-linejoin="round"/>
<path d="M32 34V26" stroke="#ED3F40" stroke-width="1.33333" stroke-linecap="round" stroke-linejoin="round"/>
<path d="M20.2833 51.1953L17.4154 55.2544L15.9404 54.2123C15.4983 53.8999 15.1932 53.5472 15.0252 53.1543C14.8545 52.7651 14.8039 52.3636 14.8733 51.9499C14.9401 51.54 15.1055 51.1482 15.3694 50.7747C15.6602 50.3631 15.9953 50.0627 16.3746 49.8736C16.7539 49.6845 17.1533 49.6124 17.5729 49.6575C17.9887 49.6998 18.4005 49.8651 18.8083 50.1532L20.2833 51.1953ZM16.164 51.3362C15.9782 51.5992 15.8629 51.8634 15.8182 52.1289C15.7708 52.3982 15.7976 52.6514 15.8986 52.8885C15.997 53.1294 16.1738 53.3401 16.4292 53.5205L17.1152 54.0052L19.0056 51.3297L18.3195 50.8449C18.0604 50.6618 17.8008 50.5642 17.5409 50.5519C17.2783 50.5435 17.0299 50.608 16.7957 50.7454C16.555 50.8839 16.3444 51.0808 16.164 51.3362Z" fill="#ED3F40"/>
<path d="M12.7371 44.9892L13.3974 44.4588L15.5585 47.1493L11.6837 50.2617L9.56207 47.6203L10.2224 47.0898L11.7391 48.9781L12.6724 48.2285L11.3617 46.5968L11.9729 46.1058L13.2836 47.7376L14.2932 46.9266L12.7371 44.9892Z" fill="#ED3F40"/>
<path d="M7.60335 40.6491C7.58589 40.6919 7.56851 40.765 7.55122 40.8684C7.53212 40.9675 7.52331 41.0851 7.52479 41.2212C7.52445 41.3529 7.53509 41.4927 7.5567 41.6406C7.57401 41.7902 7.61158 41.9339 7.66942 42.0715C7.77063 42.3125 7.89262 42.4763 8.03539 42.5632C8.17635 42.6457 8.32857 42.6526 8.49207 42.5839C8.61684 42.5315 8.69953 42.4512 8.74014 42.343C8.78074 42.2349 8.79433 42.0925 8.78089 41.9159C8.76745 41.7393 8.74205 41.5222 8.70469 41.2646C8.65131 40.9327 8.63231 40.6344 8.6477 40.3698C8.65697 40.1027 8.72325 39.8749 8.84655 39.6865C8.96374 39.4955 9.16216 39.3413 9.44182 39.2238C9.68706 39.1208 9.91686 39.0774 10.1312 39.0937C10.3413 39.1117 10.5335 39.1777 10.7079 39.2917C10.8824 39.4058 11.0379 39.553 11.1745 39.7335C11.3067 39.9159 11.4208 40.1211 11.5166 40.3491C11.6124 40.5771 11.6845 40.8151 11.733 41.063C11.7814 41.3109 11.8069 41.5584 11.8094 41.8053C11.8076 42.0541 11.7814 42.2929 11.7307 42.5217L10.7974 42.4507C10.8198 42.3957 10.8425 42.3051 10.8655 42.1791C10.8842 42.0548 10.896 41.9081 10.9008 41.739C10.9014 41.5718 10.888 41.3952 10.8605 41.2093C10.8331 41.0234 10.7832 40.8445 10.7109 40.6724C10.6097 40.4314 10.492 40.2657 10.3578 40.1753C10.2237 40.0849 10.0813 40.0713 9.93071 40.1346C9.79303 40.1924 9.70625 40.2871 9.67038 40.4185C9.63451 40.55 9.62566 40.7157 9.64383 40.9156C9.6577 41.1173 9.68082 41.3531 9.7132 41.623C9.75255 41.9456 9.76341 42.2245 9.74579 42.4596C9.72386 42.6966 9.65534 42.895 9.54021 43.0547C9.42509 43.2144 9.25136 43.3431 9.01903 43.4407C8.70495 43.5726 8.41177 43.6097 8.1395 43.552C7.86112 43.4918 7.61483 43.3574 7.40063 43.1487C7.18213 42.9419 7.00781 42.6835 6.87768 42.3738C6.78731 42.1586 6.72602 41.9465 6.69382 41.7373C6.65982 41.5238 6.64629 41.3169 6.65325 41.1166C6.6602 40.9162 6.68084 40.7304 6.71516 40.5591L7.60335 40.6491Z" fill="#ED3F40"/>
<path d="M7.79895 36.6224C7.49775 36.6583 7.19715 36.6401 6.89714 36.5678C6.59195 36.4914 6.30875 36.3631 6.04756 36.1827C5.78173 36.0029 5.56135 35.7707 5.38641 35.4861C5.20684 35.2021 5.09412 34.8677 5.04825 34.4831C4.99409 34.029 5.04702 33.6256 5.20703 33.2728C5.3665 32.9154 5.59643 32.6365 5.89682 32.4362L6.49209 33.1125C6.31669 33.218 6.18371 33.3443 6.09316 33.4914C5.99797 33.639 5.93865 33.7918 5.91518 33.9497C5.88708 34.1081 5.88187 34.2615 5.89956 34.4098C5.92829 34.6507 6.00209 34.8558 6.12096 35.0249C6.23927 35.1894 6.38438 35.3224 6.5563 35.4241C6.72822 35.5258 6.91508 35.5952 7.11689 35.6322C7.31814 35.6646 7.51608 35.6692 7.7107 35.646C7.92849 35.62 8.13518 35.5601 8.33078 35.4663C8.52175 35.373 8.68854 35.2544 8.83117 35.1105C8.96861 34.9625 9.07317 34.795 9.14485 34.6078C9.21134 34.4166 9.23187 34.2144 9.20645 34.0013C9.18821 33.8484 9.14421 33.6962 9.07445 33.5447C9.00469 33.3932 8.90619 33.2569 8.77895 33.1358C8.65171 33.0147 8.49563 32.9276 8.3107 32.8744L8.66882 32.0351C8.92602 32.1031 9.15361 32.2381 9.35159 32.4401C9.54902 32.6374 9.70805 32.8676 9.8287 33.1305C9.94935 33.3934 10.0257 33.6592 10.0578 33.9279C10.0998 34.2801 10.0663 34.6107 9.95751 34.9198C9.84405 35.2294 9.67954 35.5052 9.46401 35.7471C9.24328 35.9849 8.98951 36.182 8.70268 36.3384C8.41066 36.4907 8.10942 36.5854 7.79895 36.6224Z" fill="#ED3F40"/>
<path d="M5.41862 27.6787L5.57504 26.7113L10.7729 25.701L10.6143 26.6822L9.31743 26.9406L9.04034 28.6543L10.1908 29.3012L10.0322 30.2825L5.41862 27.6787ZM8.6192 27.0049L6.485 27.3548L8.39574 28.387L8.6192 27.0049Z" fill="#ED3F40"/>
<path d="M11.6662 23.7842L7.16813 21.6704L8.10295 19.6811C8.2002 19.4742 8.33175 19.3039 8.4976 19.1705C8.66543 19.0328 8.85092 18.9343 9.05406 18.8751C9.25919 18.8116 9.46633 18.7878 9.67547 18.8036C9.8866 18.8152 10.0851 18.8646 10.2709 18.9519C10.461 19.0412 10.6288 19.1614 10.7745 19.3123C10.9179 19.457 11.0262 19.6214 11.0996 19.8054C11.173 19.9894 11.2069 20.1807 11.2013 20.3791L13.3751 20.1477L12.9226 21.1107L10.9801 21.3271L10.5693 22.2013L12.0771 22.9099L11.6662 23.7842ZM9.80269 21.8411L10.3177 20.7451C10.3693 20.6353 10.3833 20.5232 10.3596 20.409C10.3318 20.2928 10.2748 20.1835 10.1888 20.0812C10.1028 19.9789 9.99226 19.8961 9.8571 19.8325C9.7135 19.7651 9.57501 19.7361 9.44164 19.7456C9.30404 19.7531 9.18173 19.7884 9.07471 19.8516C8.96968 19.9105 8.89235 19.9928 8.84273 20.0984L8.34555 21.1564L9.80269 21.8411Z" fill="#ED3F40"/>
<path d="M16.2125 16.894C16.0006 17.1365 15.7503 17.3236 15.4615 17.4555C15.1758 17.5838 14.8747 17.6553 14.5581 17.67C14.2412 17.678 13.9268 17.6264 13.6151 17.5151C13.3033 17.4037 13.0122 17.2298 12.7416 16.9933C12.4851 16.7691 12.2844 16.5131 12.1393 16.2252C11.9908 15.9342 11.9026 15.6309 11.8748 15.3153C11.847 14.9996 11.8806 14.6882 11.9757 14.3808C12.0708 14.0734 12.232 13.7898 12.4593 13.5298C12.7664 13.1784 13.1045 12.944 13.4736 12.8266C13.8423 12.7026 14.2049 12.6848 14.5615 12.7733L14.4875 13.6663C14.2184 13.5984 13.9594 13.6075 13.7105 13.6937C13.4647 13.7764 13.2543 13.9178 13.0792 14.1181C12.941 14.2762 12.8485 14.4495 12.8016 14.6378C12.7547 14.8262 12.7478 15.0185 12.7808 15.2147C12.8139 15.4109 12.8829 15.6014 12.9879 15.7862C13.096 15.9674 13.2344 16.1317 13.403 16.2792C13.5822 16.4358 13.7704 16.5538 13.9676 16.6331C14.1678 16.709 14.3671 16.7468 14.5656 16.7467C14.7671 16.7431 14.9595 16.7037 15.143 16.6286C15.3229 16.5503 15.4836 16.4304 15.6248 16.2688C15.7907 16.079 15.8996 15.8551 15.9517 15.5969C16.0069 15.3352 16.0057 15.0459 15.948 14.729L16.6648 15.3555C16.7288 15.9631 16.578 16.4759 16.2125 16.894ZM15.7069 14.6113L15.0482 15.3649L14.5158 14.8997L15.6998 13.5451L17.6235 15.2266L17.0983 15.8274L15.7069 14.6113Z" fill="#ED3F40"/>
<path d="M17.7734 9.2359L18.5966 8.70418L22.8279 11.8877L21.9929 12.427L20.9326 11.6369L19.4743 12.5789L19.7644 13.8665L18.9294 14.4058L17.7734 9.2359ZM20.4171 11.1615L18.7281 9.81088L19.2411 11.9211L20.4171 11.1615Z" fill="#ED3F40"/>
<path d="M24.8525 11.2691L23.4099 6.51303L25.5133 5.87504C25.7321 5.80867 25.9466 5.79237 26.1568 5.82615C26.3714 5.85857 26.5688 5.93038 26.7488 6.04158C26.9333 6.15143 27.0897 6.28929 27.2181 6.45518C27.3509 6.61972 27.4471 6.80023 27.5067 6.99672C27.5676 7.19768 27.5908 7.40278 27.5763 7.61201C27.5648 7.81543 27.5153 8.006 27.4278 8.18372C27.3403 8.36144 27.221 8.51467 27.0698 8.64341L28.6975 10.1028L27.6793 10.4116L26.2177 9.114L25.2933 9.3944L25.7769 10.9887L24.8525 11.2691ZM25.0475 8.58386L26.2063 8.23236C26.3225 8.19714 26.415 8.13249 26.484 8.03841C26.5517 7.93987 26.5947 7.82441 26.613 7.69205C26.6314 7.55969 26.6189 7.42205 26.5756 7.27915C26.5295 7.12731 26.4583 7.00505 26.3619 6.91237C26.2642 6.81523 26.156 6.74806 26.0375 6.71088C25.9234 6.67234 25.8105 6.67 25.6988 6.70386L24.5802 7.04318L25.0475 8.58386Z" fill="#ED3F40"/>
<path d="M35.8674 10.286L36.7107 5.38811L37.6627 5.55202L36.8194 10.45L35.8674 10.286Z" fill="#ED3F40"/>
<path d="M42.6425 8.98906L41.3453 11.9056L40.4627 11.513L42.4824 6.97193L43.186 7.28485L44.202 11.3222L45.5304 8.33527L46.4131 8.72784L44.3962 13.2625L43.6606 12.9354L42.6425 8.98906Z" fill="#ED3F40"/>
<path d="M45.9111 14.5957L49.0439 10.7375L51.636 12.8422L51.1021 13.4997L49.2599 12.0039L48.4524 12.9984L49.9849 14.2427L49.4907 14.8513L47.9582 13.607L46.661 15.2046L45.9111 14.5957Z" fill="#ED3F40"/>
<path d="M51.052 20.1702C50.8389 19.8751 50.7017 19.5655 50.6404 19.2414C50.5818 18.9211 50.5862 18.6042 50.6535 18.2909C50.7274 17.9786 50.8512 17.6877 51.0251 17.4183C51.2027 17.1461 51.4202 16.9172 51.6775 16.7314C51.9461 16.5375 52.237 16.4023 52.5502 16.3259C52.8699 16.2505 53.1872 16.2315 53.502 16.269C53.8234 16.3075 54.1249 16.4063 54.4068 16.5655C54.6951 16.7257 54.9431 16.9496 55.1507 17.2372C55.361 17.5285 55.4935 17.8357 55.5483 18.1588C55.6059 18.4856 55.5977 18.8052 55.5239 19.1175C55.4501 19.4298 55.3262 19.7206 55.1523 19.99C54.9785 20.2595 54.7629 20.487 54.5056 20.6728C54.2407 20.864 53.9498 20.9992 53.6329 21.0784C53.3197 21.1548 53.0024 21.1738 52.6811 21.1352C52.3662 21.0978 52.0666 20.9976 51.782 20.8346C51.5002 20.6755 51.2568 20.454 51.052 20.1702ZM52.2511 17.526C52.0771 17.6517 51.9278 17.7997 51.8034 17.9701C51.6789 18.1406 51.5879 18.3214 51.5302 18.5127C51.4791 18.705 51.4676 18.9003 51.4958 19.0987C51.5304 19.2982 51.6146 19.4906 51.7485 19.676C51.8851 19.8652 52.0445 20.0063 52.2267 20.0992C52.4127 20.1894 52.6055 20.2373 52.8052 20.2428C53.0086 20.2455 53.2075 20.2141 53.402 20.1486C53.6029 20.0841 53.7847 19.9931 53.9474 19.8757C54.1215 19.75 54.2675 19.6015 54.3854 19.43C54.5099 19.2596 54.5976 19.0782 54.6488 18.8859C54.7064 18.6946 54.7179 18.4993 54.6832 18.2998C54.6551 18.1014 54.5755 17.9114 54.4444 17.7298C54.3051 17.5368 54.1424 17.3952 53.9564 17.305C53.7769 17.2159 53.5874 17.1686 53.3877 17.1631C53.188 17.1576 52.9896 17.1857 52.7925 17.2474C52.598 17.313 52.4176 17.4058 52.2511 17.526Z" fill="#ED3F40"/>
<path d="M53.6609 25.7437C53.5516 25.4408 53.5093 25.1311 53.534 24.8146C53.5603 24.5025 53.6438 24.2044 53.7844 23.9205C53.9311 23.6394 54.1286 23.3895 54.3772 23.1708C54.6257 22.9522 54.919 22.7818 55.257 22.6599C55.5774 22.5442 55.8987 22.4928 56.2208 22.5056C56.5473 22.5167 56.8553 22.5867 57.1449 22.7154C57.4344 22.8441 57.6905 23.0245 57.9132 23.2567C58.1359 23.4889 58.3059 23.7674 58.4231 24.0923C58.5815 24.5312 58.6225 24.9406 58.5463 25.3204C58.4759 25.703 58.3156 26.0287 58.0654 26.2976L57.3203 25.8C57.5101 25.5975 57.6277 25.3665 57.673 25.1071C57.7199 24.852 57.6982 24.5994 57.6079 24.3492C57.5366 24.1517 57.43 23.9867 57.288 23.8544C57.146 23.7221 56.9812 23.6228 56.7935 23.5566C56.6059 23.4903 56.4058 23.4583 56.1933 23.4606C55.9824 23.4672 55.7716 23.5086 55.5609 23.5846C55.337 23.6654 55.1426 23.7728 54.9776 23.9067C54.8142 24.0451 54.6844 24.201 54.5883 24.3746C54.4938 24.5526 54.4349 24.7401 54.4117 24.937C54.3928 25.1323 54.4199 25.3309 54.4927 25.5328C54.5783 25.7699 54.7213 25.9737 54.9218 26.1445C55.1239 26.3196 55.3775 26.4588 55.6827 26.562L54.7872 26.8851C54.2248 26.6465 53.8494 26.266 53.6609 25.7437ZM55.9026 26.4083L55.5628 25.4667L56.2278 25.2267L56.8384 26.9189L54.4351 27.7861L54.1643 27.0355L55.9026 26.4083Z" fill="#ED3F40"/>
<path d="M54.5523 29.8129L59.5111 29.4787L59.6589 31.6717C59.6743 31.8998 59.6418 32.1125 59.5616 32.3097C59.4816 32.5115 59.3672 32.6876 59.2183 32.838C59.0697 32.993 58.9002 33.1143 58.7096 33.202C58.5194 33.2943 58.3219 33.3474 58.117 33.3612C57.9075 33.3753 57.7024 33.3517 57.5018 33.2904C57.3062 33.2334 57.1317 33.1423 56.9783 33.017C56.8248 32.8917 56.7024 32.7409 56.611 32.5647L54.8225 33.8218L54.751 32.7602L56.3445 31.6285L56.2795 30.6647L54.6173 30.7767L54.5523 29.8129ZM57.1246 30.6077L57.206 31.816C57.2142 31.937 57.2563 32.0418 57.3324 32.1302C57.4132 32.2183 57.516 32.2862 57.6408 32.3339C57.7657 32.3816 57.9026 32.4004 58.0516 32.3904C58.2099 32.3797 58.345 32.3379 58.457 32.2649C58.5737 32.1915 58.6635 32.1013 58.7264 31.9941C58.7897 31.8916 58.8174 31.7822 58.8096 31.6658L58.7309 30.4994L57.1246 30.6077Z" fill="#ED3F40"/>
<path d="M58.9675 38.396L58.7615 39.3541L53.5186 40.096L53.7275 39.1242L55.0359 38.9329L55.4007 37.2356L54.2849 36.5304L54.4938 35.5586L58.9675 38.396ZM55.7365 38.9044L57.8858 38.6647L56.0307 37.5357L55.7365 38.9044Z" fill="#ED3F40"/>
<path d="M52.4942 41.9948L56.9135 44.2687L55.3859 47.2377L54.6327 46.8502L55.7184 44.7401L54.5794 44.154L53.6762 45.9093L52.9791 45.5506L53.8822 43.7953L52.0523 42.8538L52.4942 41.9948Z" fill="#ED3F40"/>
<path d="M49.4752 46.6767L53.2517 49.9076L52.6237 50.6416L48.8472 47.4107L49.4752 46.6767ZM53.0566 50.7817L53.5863 50.4426L53.9735 51.2713L53.4047 51.9362L53.0566 50.7817Z" fill="#ED3F40"/>
<path d="M47.8343 54.8388L47.0339 55.4043L42.6739 52.3995L43.4857 51.8259L44.578 52.5712L45.9958 51.5695L45.6525 50.295L46.4643 49.7214L47.8343 54.8388ZM45.1127 53.0248L46.8565 54.304L46.2561 52.2169L45.1127 53.0248Z" fill="#ED3F40"/>
<rect x="0.5" y="0.5" width="63" height="63" rx="31.5" stroke="#ED3F40"/>
</svg>
