<svg width="54" height="32" viewBox="0 0 54 32" fill="none" xmlns="http://www.w3.org/2000/svg">
<path fill-rule="evenodd" clip-rule="evenodd" d="M28.1812 5.20292V20.3725C28.1812 23.351 30.6544 25.5723 33.9462 25.5744C37.2683 25.5744 39.7435 23.349 39.7435 20.3725V5.20292C39.7435 2.22131 37.2683 0 33.9462 0C30.6564 0 28.1812 2.22535 28.1812 5.20292ZM35.9833 20.3725C35.9833 21.3751 35.1061 22.1273 33.9462 22.1273H33.9442C32.8166 22.1273 31.9394 21.3751 31.9415 20.3725V5.20292C31.9415 4.19929 32.8187 3.44707 33.9462 3.44707C35.1061 3.44707 35.9833 4.19929 35.9833 5.20292V20.3725ZM0 0.229492H4.7313C7.42653 0.229492 9.46259 2.14083 9.46259 4.68019V8.75428C9.46259 10.2274 8.61667 11.5127 7.39524 12.0135C8.61667 12.5467 9.46259 13.8007 9.46259 15.5555V20.8523C9.46259 23.3907 7.42653 25.303 4.7313 25.303H0V0.229492ZM4.7313 10.7949C4.92618 10.8003 5.12013 10.7659 5.30127 10.6938C5.48241 10.6217 5.64694 10.5134 5.7848 10.3755C5.92266 10.2376 6.03094 10.073 6.10304 9.89183C6.17513 9.71064 6.20951 9.51665 6.20408 9.32172V4.68322C6.20951 4.48829 6.17513 4.2943 6.10304 4.11311C6.03094 3.93193 5.92266 3.76736 5.7848 3.62947C5.64694 3.49158 5.48241 3.38327 5.30127 3.31116C5.12013 3.23905 4.92618 3.20465 4.7313 3.21009H3.2585V10.7949H4.7313ZM4.7313 22.3285C4.92618 22.3339 5.12013 22.2995 5.30127 22.2274C5.48241 22.1553 5.64694 22.047 5.7848 21.9091C5.92266 21.7712 6.03094 21.6067 6.10304 21.4255C6.17513 21.2443 6.20951 21.0503 6.20408 20.8554V15.2738C6.20966 15.0789 6.17538 14.8848 6.10334 14.7035C6.0313 14.5223 5.92301 14.3577 5.78513 14.2197C5.64724 14.0818 5.48264 13.9735 5.30143 13.9015C5.12023 13.8294 4.92622 13.7951 4.7313 13.8007H3.2585V22.3255L4.7313 22.3285ZM11.3438 27.5496V6.92676H14.6023V27.5496C14.5968 27.7445 14.6312 27.9385 14.7033 28.1197C14.7754 28.3009 14.8837 28.4655 15.0215 28.6034C15.1594 28.7413 15.3239 28.8496 15.5051 28.9217C15.6862 28.9938 15.8802 29.0282 16.075 29.0227H16.5131V32.0003H16.075C13.3798 32.0003 11.3438 30.089 11.3438 27.5496ZM16.95 7.27667V24.201C16.95 26.6768 18.9881 28.5265 21.6823 28.5265C24.3765 28.5265 26.4136 26.6768 26.4136 24.201V7.27667C26.4136 4.80092 24.3775 2.95117 21.6823 2.95117C18.9871 2.95117 16.95 4.80092 16.95 7.27667ZM23.1551 24.201C23.1551 24.9492 22.5282 25.5136 21.6823 25.5136V25.5177C20.8364 25.5177 20.2055 24.9532 20.2055 24.201V7.27667C20.2055 6.52445 20.8364 5.96408 21.6823 5.96408C22.5282 5.96408 23.1551 6.52445 23.1551 7.27667V24.201ZM41.5844 3.2024H43.7769V4.42412C44.216 3.6093 45.0619 3.0459 45.9704 3.0459C47.0364 3.0459 47.9762 3.79812 48.3517 4.89463C48.7282 3.79812 49.664 3.0459 50.734 3.0459C52.2068 3.0459 53.3344 4.42412 53.3344 6.30517V28.276H51.1408V6.30517C51.1408 5.58425 50.5765 5.05114 49.8285 5.05114C49.1078 5.05114 48.5445 5.58425 48.5445 6.30517V28.276H46.352V6.30517C46.352 5.58425 45.819 5.05114 45.067 5.05114C44.3462 5.05114 43.7819 5.58425 43.7819 6.30517V28.276H41.5894L41.5844 3.2024Z" fill="#592D9C"/>
</svg>
