<svg width="24" height="25" viewBox="0 0 24 25" fill="none" xmlns="http://www.w3.org/2000/svg">
<path d="M7 22.3335H4C3.46957 22.3335 2.96086 22.1228 2.58579 21.7477C2.21071 21.3726 2 20.8639 2 20.3335V13.3335C2 12.8031 2.21071 12.2944 2.58579 11.9193C2.96086 11.5442 3.46957 11.3335 4 11.3335H7M14 9.3335V5.3335C14 4.53785 13.6839 3.77478 13.1213 3.21218C12.5587 2.64957 11.7956 2.3335 11 2.3335L7 11.3335V22.3335H18.28C18.7623 22.3389 19.2304 22.1699 19.5979 21.8575C19.9654 21.5451 20.2077 21.1104 20.28 20.6335L21.66 11.6335C21.7035 11.3469 21.6842 11.0542 21.6033 10.7757C21.5225 10.4973 21.3821 10.2398 21.1919 10.021C21.0016 9.80223 20.7661 9.62743 20.5016 9.50871C20.2371 9.39 19.9499 9.33021 19.66 9.3335H14Z" stroke="#592D9C" stroke-width="2" stroke-linecap="round" stroke-linejoin="round"/>
</svg>
