<svg width="75" height="5" viewBox="0 0 75 5" fill="none" xmlns="http://www.w3.org/2000/svg">
<g clip-path="url(#clip0_855_28131)">
<path d="M21.6619 4.21594C21.877 4.13791 22.3064 4.03715 22.6939 3.82806C23.1085 3.60458 23.3572 3.172 23.4185 2.62655C23.5012 1.88867 23.031 1.28867 22.4291 1.49776C21.784 1.722 21.2428 1.53488 20.6616 1.28791C20.2289 1.10382 19.769 0.978818 19.3125 0.910637C19.0057 0.864424 18.6666 0.903818 18.3715 1.01291C17.9504 1.16821 17.8045 1.70306 18.0977 2.07655C19.0012 3.22806 20.0358 4.13336 21.6626 4.2167L21.6619 4.21594Z" fill="#592D9C"/>
<path d="M30.842 1.00304C30.202 1.00304 29.5588 0.959856 28.922 1.0144C28.2006 1.07576 27.9533 1.77425 28.3743 2.4788C28.7108 3.04243 29.2074 3.39319 29.7622 3.44698C30.625 3.53107 31.5001 3.51895 32.3655 3.46061C32.6554 3.44092 32.9667 3.20683 33.2082 2.98183C33.5324 2.68031 33.599 2.22577 33.4685 1.76743C33.3303 1.28258 33.0067 1.10001 32.5844 1.10455C32.0032 1.11137 31.4226 1.10607 30.8413 1.10607C30.8413 1.07122 30.8413 1.03637 30.8413 1.00228L30.842 1.00304Z" fill="#592D9C"/>
<path d="M39.8336 0.784876C39.574 0.798513 39.3408 0.791694 39.1116 0.8273C38.7486 0.883361 38.4406 1.05382 38.3276 1.51063C38.2178 1.95382 38.3527 2.32048 38.6343 2.60609C39.2459 3.22806 39.9879 3.5523 40.7694 3.64624C41.3047 3.71063 41.8685 3.62275 42.4007 3.49397C43.0232 3.34321 43.3106 2.90382 43.3113 2.32124C43.3113 1.73336 43.0181 1.36366 42.3878 1.16745C42.2483 1.12427 42.1062 1.0826 41.9628 1.06291C41.2447 0.964422 40.5259 0.87427 39.8329 0.784119L39.8336 0.784876Z" fill="#592D9C"/>
<path d="M62.3571 3.98942C62.7555 4.01593 62.9893 4.05836 63.2199 4.04093C63.5944 4.01139 63.896 3.81669 64.0181 3.37048C64.1298 2.96139 63.9806 2.62881 63.7262 2.36669C63.5751 2.21063 63.4039 2.05684 63.2179 1.97654C62.2537 1.55987 61.2618 1.30533 60.2265 1.44548C59.9992 1.47654 59.7706 1.56821 59.5588 1.67502C59.2229 1.84548 58.9594 2.10987 58.9633 2.59169C58.9672 3.0879 59.2514 3.34851 59.6053 3.4432C60.3977 3.65533 61.1998 3.81745 61.9999 3.98487C62.1691 4.02048 62.3487 3.99017 62.3577 3.99017L62.3571 3.98942Z" fill="#592D9C"/>
<path d="M73.2917 4.99997C73.6818 4.88331 74.0906 4.81967 74.4561 4.6371C74.8798 4.42573 75.0593 3.93331 74.9824 3.4621C74.9017 2.9674 74.6176 2.64543 74.1067 2.66816C73.397 2.69997 72.8106 2.39391 72.2216 1.9924C71.486 1.49088 70.9041 1.56664 70.5929 2.1424C70.2913 2.69997 70.4792 3.4477 71.0966 4.00452C71.7347 4.58028 72.4599 4.90755 73.2911 4.99922L73.2917 4.99997Z" fill="#592D9C"/>
<path d="M11.7427 3.19774C12.2129 3.04471 12.705 2.95077 13.1474 2.72274C13.666 2.45531 13.883 1.89092 13.7493 1.40304C13.5936 0.836373 13.1919 0.765918 12.767 0.776524C12.0592 0.793948 11.3798 0.700009 10.7682 0.225009C10.6281 0.116676 10.4453 0.0674333 10.2761 0.0318272C9.88474 -0.0507485 9.50306 0.0121302 9.25055 0.402282C8.99804 0.792433 9.16983 1.1788 9.3584 1.53637C9.90153 2.56668 10.6578 3.16213 11.7434 3.19698L11.7427 3.19774Z" fill="#592D9C"/>
<path d="M50.8492 3.57423C51.3698 3.54469 51.7501 3.5606 52.1195 3.49241C52.5212 3.41817 52.8138 3.13408 52.8835 2.63484C52.9552 2.12044 52.7163 1.8106 52.3501 1.57878C51.1495 0.81893 49.9225 1.06893 48.7038 1.46363C48.3383 1.58181 48.1891 2.09317 48.4261 2.47044C48.6373 2.80529 48.9512 3.14317 49.2773 3.26438C49.8217 3.4659 50.4127 3.4962 50.8492 3.57423Z" fill="#592D9C"/>
<path d="M2.16348 4.45986C2.4767 4.38562 2.82866 4.34698 3.15286 4.2144C3.65724 4.00834 3.96594 3.56137 4.0331 2.93183C4.10802 2.22804 3.71472 1.74774 3.12251 1.75531C2.57551 1.76213 2.02721 1.76213 1.48085 1.72804C0.659379 1.67652 0.131105 1.99546 0.0213175 2.65228C-0.0975122 3.3644 0.298368 3.96743 1.10047 4.23486C1.43306 4.34546 1.7831 4.38183 2.16413 4.46062L2.16348 4.45986Z" fill="#592D9C"/>
</g>
<defs>
<clipPath id="clip0_855_28131">
<rect width="75" height="5" fill="white" transform="matrix(-1 0 0 1 75 0)"/>
</clipPath>
</defs>
</svg>
