<svg width="94" height="56" viewBox="0 0 94 56" fill="none" xmlns="http://www.w3.org/2000/svg">
<path fill-rule="evenodd" clip-rule="evenodd" d="M49.1418 9.1051V35.6518C49.1418 40.8643 53.4543 44.7516 59.1944 44.7551C64.9874 44.7551 69.3034 40.8608 69.3034 35.6518V9.1051C69.3034 3.88729 64.9874 0 59.1944 0C53.4579 0 49.1418 3.89436 49.1418 9.1051ZM62.7466 35.6518C62.7466 37.4064 61.2169 38.7228 59.1944 38.7228H59.1909C57.2247 38.7228 55.6951 37.4064 55.6986 35.6518V9.1051C55.6986 7.34875 57.2283 6.03237 59.1944 6.03237C61.2169 6.03237 62.7466 7.34875 62.7466 9.1051V35.6518ZM0 0.400425H8.2502C12.95 0.400425 16.5004 3.74526 16.5004 8.18915V15.3188C16.5004 17.8968 15.0253 20.1461 12.8954 21.0225C15.0253 21.9555 16.5004 24.15 16.5004 27.221V36.4904C16.5004 40.9325 12.95 44.2791 8.2502 44.2791H0V0.400425ZM8.2502 18.8898C8.59003 18.8993 8.92822 18.8391 9.24409 18.7129C9.55995 18.5867 9.84685 18.3972 10.0872 18.1559C10.3276 17.9146 10.5165 17.6266 10.6422 17.3095C10.7679 16.9924 10.8278 16.653 10.8184 16.3118V8.19445C10.8278 7.85332 10.7679 7.51383 10.6422 7.19676C10.5165 6.87969 10.3276 6.59169 10.0872 6.35038C9.84685 6.10908 9.55995 5.91953 9.24409 5.79334C8.92822 5.66715 8.59003 5.60696 8.2502 5.61646H5.68202V18.8898H8.2502ZM8.2502 39.0737C8.59003 39.0832 8.92822 39.023 9.24409 38.8968C9.55995 38.7706 9.84685 38.5811 10.0872 38.3398C10.3276 38.0985 10.5165 37.8105 10.6422 37.4934C10.7679 37.1763 10.8278 36.8368 10.8184 36.4957V26.728C10.8281 26.3868 10.7683 26.0472 10.6427 25.73C10.5171 25.4128 10.3283 25.1247 10.0878 24.8834C9.84737 24.642 9.56036 24.4525 9.24438 24.3264C8.92839 24.2003 8.5901 24.1403 8.2502 24.15H5.68202V39.0684L8.2502 39.0737ZM19.7812 48.2111V12.1211H25.4633V48.2111C25.4538 48.5522 25.5138 48.8917 25.6395 49.2088C25.7652 49.5259 25.954 49.8139 26.1944 50.0552C26.4348 50.2965 26.7217 50.486 27.0376 50.6122C27.3534 50.7384 27.6916 50.7986 28.0314 50.7891H28.7954V55.9998H28.0314C23.3316 55.9998 19.7812 52.655 19.7812 48.2111ZM29.5562 12.7352V42.3528C29.5562 46.6854 33.1101 49.9224 37.8081 49.9224C42.5062 49.9224 46.0583 46.6854 46.0583 42.3528V12.7352C46.0583 8.40261 42.5079 5.16556 37.8081 5.16556C33.1083 5.16556 29.5562 8.40261 29.5562 12.7352ZM40.3763 42.3528C40.3763 43.6621 39.2832 44.6498 37.8081 44.6498V44.6569C36.333 44.6569 35.2329 43.6692 35.2329 42.3528V12.7352C35.2329 11.4188 36.333 10.4381 37.8081 10.4381C39.2832 10.4381 40.3763 11.4188 40.3763 12.7352V42.3528ZM72.5134 5.60497H76.3366V7.74298C77.1023 6.31705 78.5774 5.33109 80.1616 5.33109C82.0204 5.33109 83.6592 6.64747 84.314 8.56638C84.9706 6.64747 86.6023 5.33109 88.4682 5.33109C91.0363 5.33109 93.0025 7.74298 93.0025 11.0348V49.4837H89.1775V11.0348C89.1775 9.77321 88.1936 8.84026 86.8892 8.84026C85.6324 8.84026 84.6502 9.77321 84.6502 11.0348V49.4837H80.827V11.0348C80.827 9.77321 79.8976 8.84026 78.5862 8.84026C77.3294 8.84026 76.3455 9.77321 76.3455 11.0348V49.4837H72.5222L72.5134 5.60497Z" fill="#F7EDE2"/>
</svg>
